<svg xmlns="http://www.w3.org/2000/svg" width="660.4" height="440.5" viewBox="0 0 660.4 440.5">
  <defs>
    <style>
      .cls-1, .cls-2, .cls-3 {
        fill: #009ab1;
        stroke: #fff;
        stroke-miterlimit: 10;
      }

      .cls-1, .cls-2 {
        fill-rule: evenodd;
      }

      .cls-1 {
        isolation: isolate;
        opacity: 0.3;
      }
    </style>
  </defs>
  <g id="Capa_2" data-name="Capa 2">
    <g id="Capa_1-2" data-name="Capa 1">
      <g>
        <path class="cls-1" d="M279.2,37.7a99.3,99.3,0,0,1,78.5,38.5,111.1,111.1,0,0,1,178.1,75.1h0s2.7,15,10.3,18.6,15.5-2.3,18-3.9l.7-.5h0a28.3,28.3,0,1,1,16.6,52.1h0s-12,1.3-14.1,12.8,5.3,13.2,6.8,13.7h.3A77.1,77.1,0,0,1,598,256.8a76.1,76.1,0,1,1-113,97.6h0c-5.3-9-18.1-9.8-17.9,3.5-8.4-13-20.9-24.5-35.6-34,.1,1.5.1,3.1.1,4.6A86.5,86.5,0,0,1,258.7,333c-2.3,4.4-4.4,8.9-6.4,13.4a40.9,40.9,0,0,0-9.6,4.8h-.1a132.1,132.1,0,1,1-59.8-237.5A99.1,99.1,0,0,1,279.2,37.7Z"/>
        <path class="cls-2" d="M168.4,93.1a2.1,2.1,0,0,1,.2-4.2l3.2.2h.1l3.2.4a2.2,2.2,0,1,1-.7,4.3l-2.9-.4h-.1Z"/>
        <path class="cls-2" d="M150.7,188.4a2.2,2.2,0,0,1-1.6,4h0a53.2,53.2,0,0,1-33.2-67.5h0a53.2,53.2,0,0,1,40.6-35.1,2.1,2.1,0,1,1,.8,4.2,48.9,48.9,0,0,0-37.4,32.3h0a48.9,48.9,0,0,0,30.5,62.1h.3Z"/>
        <path class="cls-2" d="M249.8,373.8a2.2,2.2,0,1,1,.1,4.3A106.6,106.6,0,0,1,233,377a91.5,91.5,0,0,1-16.4-4.1,97.4,97.4,0,0,1-60.8-123.6,2.1,2.1,0,0,1,4,1.4,93.1,93.1,0,0,0,58.1,118.1,90.1,90.1,0,0,0,15.7,3.9A98,98,0,0,0,249.8,373.8Z"/>
        <path class="cls-2" d="M274.6,369.9a2.2,2.2,0,1,1,1.3,4.1,62.5,62.5,0,0,1-6.2,1.6h-.1a61.8,61.8,0,0,1-6.2,1.2,2.1,2.1,0,0,1-.6-4.2l5.9-1.1h.1Z"/>
        <path class="cls-2" d="M478.4,69.6a2.1,2.1,0,0,1,2.7-3.3,115,115,0,0,1,35,125.1,122.4,122.4,0,0,1-6.5,15.4A114.1,114.1,0,0,1,501,221l-.2.4a206.5,206.5,0,0,0-12.8,24c-3.7,8.5-6.3,17.3-6.1,25.4a2.2,2.2,0,0,1-4.3.1c-.2-8.8,2.5-18.2,6.5-27.2a212.3,212.3,0,0,1,13.1-24.4l.3-.5h0a.1.1,0,0,1,.1-.1A128.9,128.9,0,0,0,506,205a128.9,128.9,0,0,0,6.3-14.8,109.7,109.7,0,0,0,1.9-65.3A114.1,114.1,0,0,0,478.4,69.6Z"/>
        <path class="cls-2" d="M460.1,57.2a2.1,2.1,0,0,1,2-3.8l6,3.5,5.8,3.8a2.2,2.2,0,1,1-2.5,3.5l-5.5-3.7Z"/>
        <path class="cls-2" d="M179,104.5A39.4,39.4,0,0,1,203.3,128h0c6.5,17.1,25.8,17,25.5-4.7v-.6h0a24.6,24.6,0,0,1,1.4-8.8,25.6,25.6,0,0,1,48.2-.8c.1,0,0,.1.1.2h0c11,19.5,29.5,11.7,38.8-5l1-2h0l.3-.6h0a101.3,101.3,0,0,1,184.7,81.3,103,103,0,0,1-13.7,26.6h0l-.5.9c-18,30.3-34.1,62.3-4.3,92l.9.9h0a45.5,45.5,0,1,1-72.5,49.4h0v-.3h0v-.3h0a1.4,1.4,0,0,1-.2-.7c-7.4-18.5-29.9-15.2-32,2.1a7.5,7.5,0,0,0,0,1.5h0a21.6,21.6,0,0,1-1,7.5,19.7,19.7,0,0,1-38.2-8.9h0c-.1,0,0-.3,0-.4-2.4-21.1-22.9-26.9-39.5-12.6l-.4.3h0a83.8,83.8,0,0,1-133-91.4,82.6,82.6,0,0,1,21.1-33.2h0l.3-.4c17.1-19.2,8.6-42.2-16.6-39l-2.5.4h0a40.5,40.5,0,0,1-17.5-1.8A39.7,39.7,0,0,1,179,104.5Z"/>
        <path class="cls-2" d="M659.9,92.1V.5H426.3a93.9,93.9,0,0,0,78.2,25h.4c19.7-.1,25.8,15.7,19.4,30.9h0a36.7,36.7,0,1,0,69,10h0v-.3c-.3-6.1,4.2-9.9,9.6-5.1a.1.1,0,0,1,.1.1h0A78.3,78.3,0,0,0,659.9,92.1Z"/>
        <path class="cls-2" d="M220.5,440H.5V150.2l3-.8a91.1,91.1,0,0,1,111,65.5,90.8,90.8,0,0,1-24.9,88.2h0c-15,14.8-7.3,28.3,12.6,29.4h.1a121.6,121.6,0,0,1,115.2,91.3A115.2,115.2,0,0,1,220.5,440Z"/>
        <path class="cls-2" d="M557.2,363.1A48.1,48.1,0,1,0,509.1,315,48.2,48.2,0,0,0,557.2,363.1Z"/>
        <path class="cls-2" d="M579.7,319.3a.7.7,0,0,1,1-1l4.2,4.2a.7.7,0,0,1,0,1l-4.2,4.2a.7.7,0,0,1-1-1l3.7-3.7Z"/>
        <g>
          <path class="cls-2" d="M227,212.3a3.5,3.5,0,0,1-7,0,3.5,3.5,0,0,1,3.5-3.5A3.4,3.4,0,0,1,227,212.3Z"/>
          <path class="cls-2" d="M227,237.4a3.5,3.5,0,1,1-3.5-3.5A3.5,3.5,0,0,1,227,237.4Z"/>
          <path class="cls-2" d="M227,262.5a3.5,3.5,0,1,1-3.5-3.5A3.5,3.5,0,0,1,227,262.5Z"/>
          <path class="cls-2" d="M227,287.7a3.5,3.5,0,1,1-3.5-3.5A3.5,3.5,0,0,1,227,287.7Z"/>
          <path class="cls-2" d="M227,312.8a3.5,3.5,0,1,1-3.5-3.5A3.5,3.5,0,0,1,227,312.8Z"/>
        </g>
        <g>
          <circle class="cls-3" cx="636.3" cy="131.6" r="3.5"/>
          <path class="cls-2" d="M639.9,156.8a3.5,3.5,0,1,1-3.5-3.5A3.5,3.5,0,0,1,639.9,156.8Z"/>
          <circle class="cls-3" cx="636.3" cy="181.9" r="3.5"/>
          <path class="cls-2" d="M639.9,207.1a3.5,3.5,0,1,1-3.5-3.5A3.5,3.5,0,0,1,639.9,207.1Z"/>
          <circle class="cls-3" cx="636.3" cy="232.2" r="3.5"/>
        </g>
        <g>
          <path class="cls-2" d="M148.5,40.5A3.5,3.5,0,1,1,152,37,3.5,3.5,0,0,1,148.5,40.5Z"/>
          <path class="cls-2" d="M123.3,40.5a3.5,3.5,0,1,1,3.5-3.5A3.5,3.5,0,0,1,123.3,40.5Z"/>
          <path class="cls-2" d="M98.2,40.5a3.5,3.5,0,1,1,3.5-3.5A3.5,3.5,0,0,1,98.2,40.5Z"/>
          <path class="cls-2" d="M73,40.5A3.5,3.5,0,1,1,76.5,37,3.4,3.4,0,0,1,73,40.5Z"/>
          <path class="cls-2" d="M47.9,40.5A3.5,3.5,0,1,1,51.4,37,3.5,3.5,0,0,1,47.9,40.5Z"/>
        </g>
        <g>
          <path class="cls-2" d="M496.9,419.1a3.5,3.5,0,1,1,3.5-3.5A3.5,3.5,0,0,1,496.9,419.1Z"/>
          <circle class="cls-3" cx="471.7" cy="415.6" r="3.5"/>
          <path class="cls-2" d="M446.6,419.1a3.5,3.5,0,1,1,3.5-3.5A3.5,3.5,0,0,1,446.6,419.1Z"/>
          <circle class="cls-3" cx="421.4" cy="415.6" r="3.5"/>
          <path class="cls-2" d="M396.3,419.1a3.5,3.5,0,1,1,3.5-3.5A3.5,3.5,0,0,1,396.3,419.1Z"/>
        </g>
        <path class="cls-2" d="M393.6,96.3a9.7,9.7,0,0,1,7.1,3,10.2,10.2,0,0,1,3,7.1,9.7,9.7,0,0,1-3,7.1h0a10.2,10.2,0,0,1-7.1,3,9.7,9.7,0,0,1-7.1-3h-.1a10,10,0,0,1-2.9-7.1,9.7,9.7,0,0,1,3-7.1,9.8,9.8,0,0,1,7.1-2.9Zm5.1,4.9a7.2,7.2,0,0,0-10.2,10.2h.1a7.2,7.2,0,0,0,12.3-5.1A8.2,8.2,0,0,0,398.7,101.2Z"/>
        <path class="cls-2" d="M163.5,393.6a9.7,9.7,0,0,1,7.1,3,10.2,10.2,0,0,1,3,7.1,9.7,9.7,0,0,1-3,7.1h0a10.2,10.2,0,0,1-7.1,3,9.7,9.7,0,0,1-7.1-3h-.1a10,10,0,0,1-2.9-7.1,9.7,9.7,0,0,1,3-7.1,10,10,0,0,1,7.1-2.9Zm5.1,5a7.2,7.2,0,0,0-10.2,10.2h.1a7.2,7.2,0,0,0,12.3-5.1A7.8,7.8,0,0,0,168.6,398.6Z"/>
        <path class="cls-2" d="M576.9,21.8a9.7,9.7,0,0,1,7.1,3,10.2,10.2,0,0,1,3,7.1,9.7,9.7,0,0,1-3,7.1h0a10.2,10.2,0,0,1-7.1,3,9.7,9.7,0,0,1-7.1-3h-.1a10,10,0,0,1-2.9-7.1,9.7,9.7,0,0,1,3-7.1,10.4,10.4,0,0,1,7.1-2.9Zm5.2,5A7.2,7.2,0,0,0,571.9,37h.1A7.2,7.2,0,0,0,584.3,32,7.8,7.8,0,0,0,582.1,26.8Z"/>
        <path class="cls-2" d="M148,204.1a9.7,9.7,0,0,1,7.1,3,10.2,10.2,0,0,1,3,7.1,9.7,9.7,0,0,1-3,7.1h0a10.2,10.2,0,0,1-7.1,3,9.7,9.7,0,0,1-7.1-3h-.1a10,10,0,0,1-2.9-7.1,9.7,9.7,0,0,1,3-7.1,10,10,0,0,1,7.1-2.9Zm5.1,5a7.2,7.2,0,0,0-10.2,10.2h.1a7.2,7.2,0,0,0,12.3-5.1A7.8,7.8,0,0,0,153.1,209.1Z"/>
        <path class="cls-2" d="M52.4,90.2a9.7,9.7,0,0,1,7.1,3,10.2,10.2,0,0,1,3,7.1,9.7,9.7,0,0,1-3,7.1h0a10.2,10.2,0,0,1-7.1,3,9.7,9.7,0,0,1-7.1-3h-.1a10,10,0,0,1-2.9-7.1,9.7,9.7,0,0,1,3-7.1,10.4,10.4,0,0,1,7.1-2.9Zm5.1,5a7.2,7.2,0,0,0-10.2,10.2h.1a7.2,7.2,0,0,0,12.3-5.1A7.3,7.3,0,0,0,57.5,95.2Z"/>
        <path class="cls-2" d="M313.9,83.2a1.4,1.4,0,0,1,0,2.8h-1.8v1.8a1.4,1.4,0,0,1-2.8,0V86h-1.8a1.4,1.4,0,1,1,0-2.8h1.8V81.4a1.4,1.4,0,0,1,2.8,0v1.8Z"/>
        <path class="cls-2" d="M532.5,231.7a1.4,1.4,0,0,1,0,2.8h-1.9v1.8a1.4,1.4,0,0,1-2.8,0v-1.8H526a1.4,1.4,0,1,1,0-2.8h1.8v-1.8a1.4,1.4,0,1,1,2.8,0v1.8Z"/>
        <path class="cls-2" d="M599.9,409.9a1.4,1.4,0,0,1,0,2.8h-1.8v1.8a1.4,1.4,0,0,1-2.8,0v-1.8h-1.8a1.4,1.4,0,1,1,0-2.8h1.8v-1.8a1.4,1.4,0,1,1,2.8,0v1.8Z"/>
        <path class="cls-2" d="M39.3,331.4a1.4,1.4,0,1,1,0,2.8H37.5V336a1.4,1.4,0,0,1-2.8,0v-1.8H32.8a1.4,1.4,0,1,1,0-2.8h1.8v-1.9a1.4,1.4,0,0,1,2.8,0v1.8h1.9Z"/>
        <path class="cls-2" d="M63.6,230.9a1.4,1.4,0,0,1,0,2.8H61.8v1.8a1.4,1.4,0,0,1-2.8,0v-1.8H57.2a1.4,1.4,0,0,1,0-2.8H59v-1.8a1.4,1.4,0,1,1,2.8,0v1.8Z"/>
        <path class="cls-2" d="M468.4,210.8a1.4,1.4,0,1,1,0,2.8h-1.8v1.8a1.4,1.4,0,0,1-2.8,0v-1.8H462a1.4,1.4,0,1,1,0-2.8h1.8V209a1.4,1.4,0,0,1,2.8,0v1.8Z"/>
        <path class="cls-2" d="M566.1,76.8a1.4,1.4,0,0,1,0,2.8h-1.8v1.8a1.4,1.4,0,1,1-2.8,0V79.6h-1.9a1.4,1.4,0,1,1,0-2.8h1.8V75a1.4,1.4,0,1,1,2.8,0v1.8Z"/>
        <path class="cls-2" d="M273.6,13a29.5,29.5,0,0,1,25.8,15.1h0c6.9,11,15.3,15,24.6,4.1h0a17,17,0,0,1,13.3-6.5A16.8,16.8,0,1,1,324,52.8h0c-9.2-10.9-17.7-6.9-24.6,4.1h0A29.6,29.6,0,1,1,273.6,13Z"/>
        <path class="cls-2" d="M446.5,303.2a18.4,18.4,0,0,0-16,9.4h0c-4.2,6.8-9.5,9.3-15.2,2.5h0a10.5,10.5,0,0,0-8.2-4,10.4,10.4,0,0,0,0,20.8,10.5,10.5,0,0,0,8.2-4h0c5.7-6.8,10.9-4.3,15.2,2.5h0a18.3,18.3,0,1,0,16-27.2Z"/>
        <path class="cls-2" d="M108.5,356.6a29.6,29.6,0,0,0-25.8,15.1h0c-6.9,11-15.3,15-24.6,4.1h0a17,17,0,0,0-13.3-6.5,16.8,16.8,0,1,0,13.3,27.1h0c9.2-10.9,17.7-6.9,24.6,4.1h0a29.6,29.6,0,1,0,25.8-43.9Z"/>
      </g>
    </g>
  </g>
</svg>
